/* XPM */
static char * icon_xpm[] = {
"32 32 75 1",
" 	c None",
".	c #F8F8F8",
"+	c #FFFEFE",
"@	c #FFFFFF",
"#	c #FDFDFD",
"$	c #A5A7A8",
"%	c #3A2605",
"&	c #3D2A08",
"*	c #111719",
"=	c #101719",
"-	c #131A1C",
";	c #161D1F",
">	c #11181A",
",	c #C4C6C6",
"'	c #E7E8E8",
")	c #AF9870",
"!	c #B09871",
"~	c #CACBCB",
"{	c #CACBCC",
"]	c #A5A7A9",
"^	c #1F2628",
"/	c #858789",
"(	c #CCCECE",
"_	c #D9DADA",
":	c #CAB188",
"<	c #FAFAFA",
"[	c #B5B7B8",
"}	c #141B1D",
"|	c #B6B7B8",
"1	c #F7F7F7",
"2	c #CBB188",
"3	c #E7E7E7",
"4	c #736D5F",
"5	c #E7E8E7",
"6	c #EDEDEC",
"7	c #7C7D7A",
"8	c #CCCCCD",
"9	c #0F1619",
"0	c #939492",
"a	c #F5F5F5",
"b	c #1B2123",
"c	c #2A3032",
"d	c #A2A3A1",
"e	c #B5B6B7",
"f	c #22292B",
"g	c #FBFBFB",
"h	c #70726F",
"i	c #D2D3D2",
"j	c #999B98",
"k	c #C6C7C6",
"l	c #C5C5C4",
"m	c #F9F9F9",
"n	c #949593",
"o	c #C8C9C8",
"p	c #555753",
"q	c #C7C7C6",
"r	c #90928F",
"s	c #BABBB9",
"t	c #C5C6C5",
"u	c #FDFEFE",
"v	c #7E7F7D",
"w	c #9C9D9B",
"x	c #E3E4E3",
"y	c #B3B4B3",
"z	c #C3C3C2",
"A	c #F1F1F1",
"B	c #CDCECF",
"C	c #171E20",
"D	c #A5A8A9",
"E	c #D4D5D5",
"F	c #353A3C",
"G	c #282F31",
"H	c #282E30",
"I	c #2F3537",
"J	c #55595B",
"................................",
"....+@@@@@@@@@@@@@@@#...........",
"....$%&*====-;>=====,...........",
"....')!~{{{{]^/({{_;{...........",
".....::.....<[}|<.@={...........",
"....1221.....<[}|<@={...........",
"...134451.....<[}|@={...........",
"...67@@76......<[}89{...........",
"...0a..a0.......<[bc{...........",
"...d3..3d........<ef{...........",
"...ghiihg.........@9{...........",
"....@jj@..........@={...........",
".....kl...........@={...........",
"....mno...........@={...........",
".....pq...........@={...........",
"...mrst...........@={...........",
"...uvot...........@={...........",
"...wxlt...........@={...........",
"..#y#tt...........@={...........",
".....tt...........@={...........",
".....tt...........@={...........",
".....tt...........@={...........",
".....zz...........@={...........",
".....AA...........@={...........",
"..................@={...........",
"..................@={...........",
"..................@={...........",
"..................@={...........",
"..................@={...........",
"..................@={...........",
"...........gB{{{{{_CD{{{{{{Em...",
"...........@FGGGGGHIcGGGGGGJ+..."};
